<svg width="120" height="40" viewBox="0 0 89 27" fill="none" xmlns="http://www.w3.org/2000/svg">
  <path d="M27.1 13.3c0 7.3-5.9 13.3-13.3 13.3C6.5 26.6.6 20.7.6 13.3.6 6 6.5 0 13.8 0c7.4 0 13.3 6 13.3 13.3" fill="#F06A6A"/>
  <path d="M13.8 3.6c-5.4 0-9.7 4.4-9.7 9.7 0 5.4 4.4 9.7 9.7 9.7 5.4 0 9.7-4.4 9.7-9.7 0-5.4-4.3-9.7-9.7-9.7" fill="#fff"/>
  <path d="M16.3 14.6h-2.4v2.4c0 .5-.4.8-.8.8s-.8-.4-.8-.8v-2.4H9.9c-.5 0-.8-.4-.8-.8s.4-.8.8-.8h2.4v-2.4c0-.5.4-.8.8-.8s.8.4.8.8v2.4h2.4c.5 0 .8.4.8.8 0 .5-.4.8-.8.8" fill="#F06A6A"/>
  <path d="M40 5.3h3.3v15.1H40zm16.3 8.3c0 4.3-3.2 7.1-7.3 7.1s-7.3-2.8-7.3-7.1c0-4.3 3.2-7.1 7.3-7.1s7.3 2.8 7.3 7.1m-3.3 0c0-2.5-1.5-4.2-4-4.2s-4 1.7-4 4.2c0 2.5 1.5 4.2 4 4.2s4-1.7 4-4.2m15.5-3.8h-2.9v6.9c0 1.1.7 1.5 1.6 1.5.6 0 1.1-.1 1.2-.2v2.6c-.3.2-1 .4-2.1.4-2.6 0-4-1.5-4-4.1v-7.2h-2.2V8.9h2.2V5.5h3.3v3.3h2.9v2.1zm9 8.2c-.6 1.8-2.6 3-5.2 3-3.8 0-6.7-2.7-6.7-7s3-7.1 6.6-7.1c3.8 0 6.2 2.8 6.2 7v1.2H68.9c.3 1.7 1.5 2.8 3.4 2.8 1.4 0 2.4-.6 2.9-1.6l2.3 1.6zm-2.9-5.3c-.1-1.8-1.3-2.9-3-2.9-1.7 0-2.9 1.2-3.2 2.9h6.2zm8.1-9.4c-1.2 0-2.1-.9-2.1-2s.9-2 2.1-2 2.1.9 2.1 2-.9 2-2.1 2m-1.7 15.1V8.9h3.3v11.5h-3.3zm12.9-9.4h-2.9v6.9c0 1.1.7 1.5 1.6 1.5.6 0 1.1-.1 1.2-.2v2.6c-.3.2-1 .4-2.1.4-2.6 0-4-1.5-4-4.1v-7.2h-2.2V8.9h2.2V5.5H88v3.3h2.9V11z" fill="#273240"/>
</svg>
